<mxfile host="app.diagrams.net" modified="2024-02-26T12:58:21.157Z" agent="Mozilla/5.0 (Windows NT 10.0; Win64; x64) AppleWebKit/537.36 (KHTML, like Gecko) Chrome/116.0.0.0 Safari/537.36 OPR/102.0.0.0" etag="4midqrSLqRRgAKtwcxx2" version="23.1.6" type="github">
  <diagram name="PÃ¡gina-1" id="gi6olbQbG5kZRvvRXPmi">
    <mxGraphModel dx="2353" dy="1188" grid="1" gridSize="10" guides="1" tooltips="1" connect="1" arrows="1" fold="1" page="1" pageScale="1" pageWidth="1169" pageHeight="827" math="0" shadow="0">
      <root>
        <mxCell id="0" />
        <mxCell id="1" parent="0" />
        <mxCell id="wAIVQIZmz8Zh-9u1Wz_s-93" value="" style="shape=partialRectangle;whiteSpace=wrap;html=1;bottom=0;top=0;fillColor=none;rotation=105;" vertex="1" parent="1">
          <mxGeometry x="1979.15" y="383.53" width="20" height="405" as="geometry" />
        </mxCell>
        <mxCell id="wAIVQIZmz8Zh-9u1Wz_s-95" value="" style="shape=partialRectangle;whiteSpace=wrap;html=1;bottom=0;top=0;fillColor=none;rotation=105;" vertex="1" parent="1">
          <mxGeometry x="951.36" y="-361.62" width="20" height="1405" as="geometry" />
        </mxCell>
        <mxCell id="wAIVQIZmz8Zh-9u1Wz_s-87" value="" style="shape=partialRectangle;whiteSpace=wrap;html=1;bottom=0;top=0;fillColor=none;rotation=135;" vertex="1" parent="1">
          <mxGeometry x="456.99" y="78.58" width="20" height="543.19" as="geometry" />
        </mxCell>
        <mxCell id="wAIVQIZmz8Zh-9u1Wz_s-83" value="" style="endArrow=none;html=1;rounded=0;entryX=0.5;entryY=1;entryDx=0;entryDy=0;" edge="1" parent="1" target="wAIVQIZmz8Zh-9u1Wz_s-81">
          <mxGeometry width="50" height="50" relative="1" as="geometry">
            <mxPoint x="223" y="680" as="sourcePoint" />
            <mxPoint x="200" y="590" as="targetPoint" />
          </mxGeometry>
        </mxCell>
        <mxCell id="wAIVQIZmz8Zh-9u1Wz_s-1" value="" style="shape=partialRectangle;whiteSpace=wrap;html=1;bottom=0;top=0;fillColor=none;rotation=-181;" vertex="1" parent="1">
          <mxGeometry x="212.64999999999998" y="150" width="20" height="255" as="geometry" />
        </mxCell>
        <mxCell id="wAIVQIZmz8Zh-9u1Wz_s-2" value="" style="shape=partialRectangle;whiteSpace=wrap;html=1;bottom=0;top=0;fillColor=none;rotation=90;" vertex="1" parent="1">
          <mxGeometry x="653.34" y="-240.77" width="20" height="787.94" as="geometry" />
        </mxCell>
        <mxCell id="wAIVQIZmz8Zh-9u1Wz_s-3" value="FILME" style="rounded=0;whiteSpace=wrap;html=1;fontSize=25;" vertex="1" parent="1">
          <mxGeometry x="120" y="123.19" width="180" height="60" as="geometry" />
        </mxCell>
        <mxCell id="wAIVQIZmz8Zh-9u1Wz_s-4" value="ATOR" style="rounded=0;whiteSpace=wrap;html=1;fontSize=25;" vertex="1" parent="1">
          <mxGeometry x="2010" y="123.19" width="180" height="60" as="geometry" />
        </mxCell>
        <mxCell id="wAIVQIZmz8Zh-9u1Wz_s-5" value="PRODUTOR" style="rounded=0;whiteSpace=wrap;html=1;fontSize=25;" vertex="1" parent="1">
          <mxGeometry x="1050" y="655" width="180" height="60" as="geometry" />
        </mxCell>
        <mxCell id="wAIVQIZmz8Zh-9u1Wz_s-6" value="Titulo" style="ellipse;whiteSpace=wrap;html=1;fontSize=18;" vertex="1" parent="1">
          <mxGeometry y="40" width="120" height="50" as="geometry" />
        </mxCell>
        <mxCell id="wAIVQIZmz8Zh-9u1Wz_s-8" value="ENTRA_EM&lt;span style=&quot;font-size: 41px;&quot; id=&quot;docs-internal-guid-361c9507-7fff-e8df-cd96-378af089c91f&quot;&gt;&lt;/span&gt;&lt;span style=&quot;font-size: 41px;&quot; id=&quot;docs-internal-guid-361c9507-7fff-e8df-cd96-378af089c91f&quot;&gt;&lt;/span&gt;&lt;span style=&quot;font-size: 41px;&quot; id=&quot;docs-internal-guid-361c9507-7fff-e8df-cd96-378af089c91f&quot;&gt;&lt;/span&gt;&lt;span style=&quot;font-size: 41px;&quot; id=&quot;docs-internal-guid-361c9507-7fff-e8df-cd96-378af089c91f&quot;&gt;&lt;/span&gt;&lt;span style=&quot;font-size: 41px;&quot; id=&quot;docs-internal-guid-361c9507-7fff-e8df-cd96-378af089c91f&quot;&gt;&lt;/span&gt;&lt;span style=&quot;font-size: 41px;&quot; id=&quot;docs-internal-guid-361c9507-7fff-e8df-cd96-378af089c91f&quot;&gt;&lt;/span&gt;&lt;span style=&quot;font-size: 41px;&quot; id=&quot;docs-internal-guid-361c9507-7fff-e8df-cd96-378af089c91f&quot;&gt;&lt;/span&gt;&lt;span style=&quot;font-size: 41px;&quot; id=&quot;docs-internal-guid-361c9507-7fff-e8df-cd96-378af089c91f&quot;&gt;&lt;/span&gt;&lt;span style=&quot;font-size: 41px;&quot; id=&quot;docs-internal-guid-361c9507-7fff-e8df-cd96-378af089c91f&quot;&gt;&lt;/span&gt;&lt;span style=&quot;font-size: 41px;&quot; id=&quot;docs-internal-guid-361c9507-7fff-e8df-cd96-378af089c91f&quot;&gt;&lt;/span&gt;&lt;span style=&quot;font-size: 41px;&quot; id=&quot;docs-internal-guid-361c9507-7fff-e8df-cd96-378af089c91f&quot;&gt;&lt;/span&gt;&lt;span style=&quot;font-size: 41px;&quot; id=&quot;docs-internal-guid-361c9507-7fff-e8df-cd96-378af089c91f&quot;&gt;&lt;/span&gt;&lt;span style=&quot;font-size: 41px;&quot; id=&quot;docs-internal-guid-361c9507-7fff-e8df-cd96-378af089c91f&quot;&gt;&lt;/span&gt;&lt;span style=&quot;font-size: 41px;&quot; id=&quot;docs-internal-guid-361c9507-7fff-e8df-cd96-378af089c91f&quot;&gt;&lt;/span&gt;&lt;span style=&quot;font-size: 41px;&quot; id=&quot;docs-internal-guid-361c9507-7fff-e8df-cd96-378af089c91f&quot;&gt;&lt;/span&gt;&lt;span style=&quot;font-size: 41px;&quot; id=&quot;docs-internal-guid-361c9507-7fff-e8df-cd96-378af089c91f&quot;&gt;&lt;/span&gt;&lt;span style=&quot;font-size: 41px;&quot; id=&quot;docs-internal-guid-361c9507-7fff-e8df-cd96-378af089c91f&quot;&gt;&lt;/span&gt;&lt;span style=&quot;font-size: 41px;&quot; id=&quot;docs-internal-guid-361c9507-7fff-e8df-cd96-378af089c91f&quot;&gt;&lt;/span&gt;&lt;span style=&quot;font-size: 41px;&quot; id=&quot;docs-internal-guid-361c9507-7fff-e8df-cd96-378af089c91f&quot;&gt;&lt;/span&gt;&lt;span style=&quot;font-size: 41px;&quot; id=&quot;docs-internal-guid-7ae01687-7fff-5947-fd97-b3079eaf287c&quot;&gt;&lt;/span&gt;&lt;span style=&quot;font-size: 41px;&quot; id=&quot;docs-internal-guid-7ae01687-7fff-5947-fd97-b3079eaf287c&quot;&gt;&lt;/span&gt;&lt;span style=&quot;font-size: 41px;&quot; id=&quot;docs-internal-guid-7ae01687-7fff-5947-fd97-b3079eaf287c&quot;&gt;&lt;/span&gt;&lt;span style=&quot;font-size: 41px;&quot; id=&quot;docs-internal-guid-7ae01687-7fff-5947-fd97-b3079eaf287c&quot;&gt;&lt;/span&gt;&lt;span style=&quot;font-size: 41px;&quot; id=&quot;docs-internal-guid-7ae01687-7fff-5947-fd97-b3079eaf287c&quot;&gt;&lt;/span&gt;&lt;span style=&quot;font-size: 41px;&quot; id=&quot;docs-internal-guid-7ae01687-7fff-5947-fd97-b3079eaf287c&quot;&gt;&lt;/span&gt;&lt;span style=&quot;font-size: 41px;&quot; id=&quot;docs-internal-guid-7ae01687-7fff-5947-fd97-b3079eaf287c&quot;&gt;&lt;/span&gt;&lt;span style=&quot;font-size: 41px;&quot; id=&quot;docs-internal-guid-7ae01687-7fff-5947-fd97-b3079eaf287c&quot;&gt;&lt;/span&gt;&lt;span style=&quot;font-size: 41px;&quot; id=&quot;docs-internal-guid-7ae01687-7fff-5947-fd97-b3079eaf287c&quot;&gt;&lt;/span&gt;&lt;span style=&quot;font-size: 41px;&quot; id=&quot;docs-internal-guid-7ae01687-7fff-5947-fd97-b3079eaf287c&quot;&gt;&lt;/span&gt;&lt;span style=&quot;font-size: 41px;&quot; id=&quot;docs-internal-guid-7ae01687-7fff-5947-fd97-b3079eaf287c&quot;&gt;&lt;/span&gt;&lt;span style=&quot;font-size: 41px;&quot; id=&quot;docs-internal-guid-7ae01687-7fff-5947-fd97-b3079eaf287c&quot;&gt;&lt;/span&gt;&lt;span style=&quot;font-size: 41px;&quot; id=&quot;docs-internal-guid-7ae01687-7fff-5947-fd97-b3079eaf287c&quot;&gt;&lt;/span&gt;&lt;span style=&quot;font-size: 41px;&quot; id=&quot;docs-internal-guid-7ae01687-7fff-5947-fd97-b3079eaf287c&quot;&gt;&lt;/span&gt;&lt;span style=&quot;font-size: 41px;&quot; id=&quot;docs-internal-guid-7ae01687-7fff-5947-fd97-b3079eaf287c&quot;&gt;&lt;/span&gt;&lt;span style=&quot;font-size: 41px;&quot; id=&quot;docs-internal-guid-7ae01687-7fff-5947-fd97-b3079eaf287c&quot;&gt;&lt;/span&gt;&lt;span style=&quot;font-size: 41px;&quot; id=&quot;docs-internal-guid-7ae01687-7fff-5947-fd97-b3079eaf287c&quot;&gt;&lt;/span&gt;&lt;span style=&quot;font-size: 41px;&quot; id=&quot;docs-internal-guid-7ae01687-7fff-5947-fd97-b3079eaf287c&quot;&gt;&lt;/span&gt;&lt;span style=&quot;font-size: 41px;&quot; id=&quot;docs-internal-guid-7ae01687-7fff-5947-fd97-b3079eaf287c&quot;&gt;&lt;/span&gt;" style="rhombus;whiteSpace=wrap;html=1;fontSize=41;" vertex="1" parent="1">
          <mxGeometry x="980" y="70" width="390" height="163.19" as="geometry" />
        </mxCell>
        <mxCell id="wAIVQIZmz8Zh-9u1Wz_s-11" value="&lt;u style=&quot;font-size: 18px;&quot;&gt;Codigo&lt;/u&gt;" style="ellipse;whiteSpace=wrap;html=1;fontSize=18;" vertex="1" parent="1">
          <mxGeometry x="154" y="9.999999999999996" width="120" height="50" as="geometry" />
        </mxCell>
        <mxCell id="wAIVQIZmz8Zh-9u1Wz_s-12" value="Ano" style="ellipse;whiteSpace=wrap;html=1;fontSize=18;" vertex="1" parent="1">
          <mxGeometry x="282.61" y="50" width="120" height="50" as="geometry" />
        </mxCell>
        <mxCell id="wAIVQIZmz8Zh-9u1Wz_s-13" value="Direcao" style="ellipse;whiteSpace=wrap;html=1;fontSize=18;" vertex="1" parent="1">
          <mxGeometry x="10" y="220.07" width="120" height="50" as="geometry" />
        </mxCell>
        <mxCell id="wAIVQIZmz8Zh-9u1Wz_s-14" value="Nome" style="ellipse;whiteSpace=wrap;html=1;fontSize=18;" vertex="1" parent="1">
          <mxGeometry x="2040" y="23.19" width="120" height="50" as="geometry" />
        </mxCell>
        <mxCell id="wAIVQIZmz8Zh-9u1Wz_s-15" value="Idade" style="ellipse;whiteSpace=wrap;html=1;dashed=1;fontSize=18;" vertex="1" parent="1">
          <mxGeometry x="2218" y="135.07" width="120" height="50" as="geometry" />
        </mxCell>
        <mxCell id="wAIVQIZmz8Zh-9u1Wz_s-16" value="Salario" style="ellipse;whiteSpace=wrap;html=1;fontSize=18;" vertex="1" parent="1">
          <mxGeometry x="1900" y="53.19" width="120" height="50" as="geometry" />
        </mxCell>
        <mxCell id="wAIVQIZmz8Zh-9u1Wz_s-17" value="&lt;u style=&quot;font-size: 18px;&quot;&gt;NContribuinte&lt;/u&gt;" style="ellipse;whiteSpace=wrap;html=1;fontSize=18;" vertex="1" parent="1">
          <mxGeometry x="2190" y="233.19" width="140" height="53.19" as="geometry" />
        </mxCell>
        <mxCell id="wAIVQIZmz8Zh-9u1Wz_s-19" value="Nome" style="ellipse;whiteSpace=wrap;html=1;fontSize=18;" vertex="1" parent="1">
          <mxGeometry x="1260" y="750" width="120" height="50" as="geometry" />
        </mxCell>
        <mxCell id="wAIVQIZmz8Zh-9u1Wz_s-20" value="DataNascimento" style="ellipse;whiteSpace=wrap;html=1;fontSize=18;" vertex="1" parent="1">
          <mxGeometry x="1070" y="770" width="160" height="47" as="geometry" />
        </mxCell>
        <mxCell id="wAIVQIZmz8Zh-9u1Wz_s-21" value="&lt;span style=&quot;font-size: 18px;&quot;&gt;NContribuinte&lt;/span&gt;" style="ellipse;whiteSpace=wrap;html=1;fontSize=18;fontStyle=4" vertex="1" parent="1">
          <mxGeometry x="910" y="753" width="130" height="47" as="geometry" />
        </mxCell>
        <mxCell id="wAIVQIZmz8Zh-9u1Wz_s-22" value="" style="endArrow=none;html=1;rounded=0;exitX=1;exitY=0;exitDx=0;exitDy=0;entryX=0.25;entryY=1;entryDx=0;entryDy=0;" edge="1" parent="1" source="wAIVQIZmz8Zh-9u1Wz_s-21" target="wAIVQIZmz8Zh-9u1Wz_s-5">
          <mxGeometry width="50" height="50" relative="1" as="geometry">
            <mxPoint x="972.6100000000001" y="817" as="sourcePoint" />
            <mxPoint x="1022.6100000000001" y="767" as="targetPoint" />
          </mxGeometry>
        </mxCell>
        <mxCell id="wAIVQIZmz8Zh-9u1Wz_s-23" value="" style="endArrow=none;dashed=1;html=1;dashPattern=1 3;strokeWidth=2;rounded=0;entryX=0;entryY=0.5;entryDx=0;entryDy=0;" edge="1" parent="1" source="wAIVQIZmz8Zh-9u1Wz_s-4" target="wAIVQIZmz8Zh-9u1Wz_s-15">
          <mxGeometry width="50" height="50" relative="1" as="geometry">
            <mxPoint x="2170" y="123.19" as="sourcePoint" />
            <mxPoint x="2220" y="73.19" as="targetPoint" />
          </mxGeometry>
        </mxCell>
        <mxCell id="wAIVQIZmz8Zh-9u1Wz_s-24" value="" style="endArrow=none;html=1;rounded=0;exitX=0.5;exitY=0;exitDx=0;exitDy=0;entryX=0.5;entryY=1;entryDx=0;entryDy=0;" edge="1" parent="1" source="wAIVQIZmz8Zh-9u1Wz_s-20" target="wAIVQIZmz8Zh-9u1Wz_s-5">
          <mxGeometry width="50" height="50" relative="1" as="geometry">
            <mxPoint x="972" y="844" as="sourcePoint" />
            <mxPoint x="1075" y="797" as="targetPoint" />
          </mxGeometry>
        </mxCell>
        <mxCell id="wAIVQIZmz8Zh-9u1Wz_s-25" value="" style="endArrow=none;html=1;rounded=0;entryX=0;entryY=0;entryDx=0;entryDy=0;exitX=1;exitY=1;exitDx=0;exitDy=0;" edge="1" parent="1" source="wAIVQIZmz8Zh-9u1Wz_s-5" target="wAIVQIZmz8Zh-9u1Wz_s-19">
          <mxGeometry width="50" height="50" relative="1" as="geometry">
            <mxPoint x="1240" y="817" as="sourcePoint" />
            <mxPoint x="1085" y="807" as="targetPoint" />
          </mxGeometry>
        </mxCell>
        <mxCell id="wAIVQIZmz8Zh-9u1Wz_s-26" value="" style="endArrow=none;html=1;rounded=0;" edge="1" parent="1" source="wAIVQIZmz8Zh-9u1Wz_s-38" target="wAIVQIZmz8Zh-9u1Wz_s-4">
          <mxGeometry width="50" height="50" relative="1" as="geometry">
            <mxPoint x="1914.0000000000005" y="216.38000000000028" as="sourcePoint" />
            <mxPoint x="1910" y="463.19" as="targetPoint" />
          </mxGeometry>
        </mxCell>
        <mxCell id="wAIVQIZmz8Zh-9u1Wz_s-27" value="" style="endArrow=none;html=1;rounded=0;entryX=0;entryY=0;entryDx=0;entryDy=0;exitX=0.5;exitY=1;exitDx=0;exitDy=0;" edge="1" parent="1" source="wAIVQIZmz8Zh-9u1Wz_s-16" target="wAIVQIZmz8Zh-9u1Wz_s-4">
          <mxGeometry width="50" height="50" relative="1" as="geometry">
            <mxPoint x="1960" y="113.19" as="sourcePoint" />
            <mxPoint x="1890" y="273.19" as="targetPoint" />
          </mxGeometry>
        </mxCell>
        <mxCell id="wAIVQIZmz8Zh-9u1Wz_s-28" value="" style="endArrow=none;html=1;rounded=0;entryX=0.5;entryY=0;entryDx=0;entryDy=0;exitX=0.5;exitY=1;exitDx=0;exitDy=0;" edge="1" parent="1" source="wAIVQIZmz8Zh-9u1Wz_s-14" target="wAIVQIZmz8Zh-9u1Wz_s-4">
          <mxGeometry width="50" height="50" relative="1" as="geometry">
            <mxPoint x="1970" y="113.19" as="sourcePoint" />
            <mxPoint x="2020" y="136.19" as="targetPoint" />
          </mxGeometry>
        </mxCell>
        <mxCell id="wAIVQIZmz8Zh-9u1Wz_s-29" value="" style="endArrow=none;html=1;rounded=0;entryX=1;entryY=1;entryDx=0;entryDy=0;exitX=0.5;exitY=0;exitDx=0;exitDy=0;" edge="1" parent="1" source="wAIVQIZmz8Zh-9u1Wz_s-17" target="wAIVQIZmz8Zh-9u1Wz_s-4">
          <mxGeometry width="50" height="50" relative="1" as="geometry">
            <mxPoint x="1980" y="123.19" as="sourcePoint" />
            <mxPoint x="2030" y="146.19" as="targetPoint" />
          </mxGeometry>
        </mxCell>
        <mxCell id="wAIVQIZmz8Zh-9u1Wz_s-30" value="" style="endArrow=none;html=1;rounded=0;entryX=1;entryY=0.25;entryDx=0;entryDy=0;exitX=0.5;exitY=1;exitDx=0;exitDy=0;" edge="1" parent="1" source="wAIVQIZmz8Zh-9u1Wz_s-12" target="wAIVQIZmz8Zh-9u1Wz_s-3">
          <mxGeometry width="50" height="50" relative="1" as="geometry">
            <mxPoint x="840" y="130" as="sourcePoint" />
            <mxPoint x="890" y="153" as="targetPoint" />
          </mxGeometry>
        </mxCell>
        <mxCell id="wAIVQIZmz8Zh-9u1Wz_s-31" value="" style="endArrow=none;html=1;rounded=0;entryX=0.5;entryY=0;entryDx=0;entryDy=0;exitX=0.5;exitY=1;exitDx=0;exitDy=0;" edge="1" parent="1" source="wAIVQIZmz8Zh-9u1Wz_s-11" target="wAIVQIZmz8Zh-9u1Wz_s-3">
          <mxGeometry width="50" height="50" relative="1" as="geometry">
            <mxPoint x="353" y="110" as="sourcePoint" />
            <mxPoint x="310" y="148" as="targetPoint" />
          </mxGeometry>
        </mxCell>
        <mxCell id="wAIVQIZmz8Zh-9u1Wz_s-32" value="" style="endArrow=none;html=1;rounded=0;entryX=0.5;entryY=1;entryDx=0;entryDy=0;exitX=0;exitY=0;exitDx=0;exitDy=0;" edge="1" parent="1" source="wAIVQIZmz8Zh-9u1Wz_s-3" target="wAIVQIZmz8Zh-9u1Wz_s-6">
          <mxGeometry width="50" height="50" relative="1" as="geometry">
            <mxPoint x="224" y="70" as="sourcePoint" />
            <mxPoint x="220" y="133" as="targetPoint" />
          </mxGeometry>
        </mxCell>
        <mxCell id="wAIVQIZmz8Zh-9u1Wz_s-33" value="" style="endArrow=none;html=1;rounded=0;entryX=1;entryY=0;entryDx=0;entryDy=0;exitX=0.25;exitY=1;exitDx=0;exitDy=0;" edge="1" parent="1" source="wAIVQIZmz8Zh-9u1Wz_s-3" target="wAIVQIZmz8Zh-9u1Wz_s-13">
          <mxGeometry width="50" height="50" relative="1" as="geometry">
            <mxPoint x="160" y="180" as="sourcePoint" />
            <mxPoint x="230" y="143" as="targetPoint" />
          </mxGeometry>
        </mxCell>
        <mxCell id="wAIVQIZmz8Zh-9u1Wz_s-38" value="&lt;span style=&quot;font-size: 18px;&quot;&gt;DataNascimento&lt;/span&gt;" style="ellipse;whiteSpace=wrap;html=1;fontSize=18;fontStyle=0" vertex="1" parent="1">
          <mxGeometry x="2160" y="53.19" width="165" height="55" as="geometry" />
        </mxCell>
        <mxCell id="wAIVQIZmz8Zh-9u1Wz_s-49" value="REALIZADOR" style="rounded=0;whiteSpace=wrap;html=1;fontSize=25;" vertex="1" parent="1">
          <mxGeometry x="160" y="660" width="180" height="60" as="geometry" />
        </mxCell>
        <mxCell id="wAIVQIZmz8Zh-9u1Wz_s-50" value="Nome" style="ellipse;whiteSpace=wrap;html=1;fontSize=18;" vertex="1" parent="1">
          <mxGeometry x="7.609999999999943" y="620" width="120" height="50" as="geometry" />
        </mxCell>
        <mxCell id="wAIVQIZmz8Zh-9u1Wz_s-51" value="DataNascimento" style="ellipse;whiteSpace=wrap;html=1;fontSize=18;" vertex="1" parent="1">
          <mxGeometry x="142.61" y="768.5" width="160.07" height="50" as="geometry" />
        </mxCell>
        <mxCell id="wAIVQIZmz8Zh-9u1Wz_s-52" value="&lt;u style=&quot;font-size: 18px;&quot;&gt;NContribuinte&lt;/u&gt;" style="ellipse;whiteSpace=wrap;html=1;fontSize=18;" vertex="1" parent="1">
          <mxGeometry x="7.609999999999999" y="720" width="120" height="50" as="geometry" />
        </mxCell>
        <mxCell id="wAIVQIZmz8Zh-9u1Wz_s-53" value="" style="endArrow=none;html=1;rounded=0;exitX=1;exitY=0;exitDx=0;exitDy=0;entryX=0.25;entryY=1;entryDx=0;entryDy=0;" edge="1" parent="1" source="wAIVQIZmz8Zh-9u1Wz_s-52" target="wAIVQIZmz8Zh-9u1Wz_s-49">
          <mxGeometry width="50" height="50" relative="1" as="geometry">
            <mxPoint x="80.22000000000003" y="800" as="sourcePoint" />
            <mxPoint x="130.22000000000003" y="750" as="targetPoint" />
          </mxGeometry>
        </mxCell>
        <mxCell id="wAIVQIZmz8Zh-9u1Wz_s-54" value="" style="endArrow=none;html=1;rounded=0;exitX=0.5;exitY=0;exitDx=0;exitDy=0;entryX=0.5;entryY=1;entryDx=0;entryDy=0;" edge="1" parent="1" source="wAIVQIZmz8Zh-9u1Wz_s-51" target="wAIVQIZmz8Zh-9u1Wz_s-49">
          <mxGeometry width="50" height="50" relative="1" as="geometry">
            <mxPoint x="79.61000000000001" y="827" as="sourcePoint" />
            <mxPoint x="182.61" y="780" as="targetPoint" />
          </mxGeometry>
        </mxCell>
        <mxCell id="wAIVQIZmz8Zh-9u1Wz_s-55" value="" style="endArrow=none;html=1;rounded=0;entryX=1;entryY=0.5;entryDx=0;entryDy=0;" edge="1" parent="1" source="wAIVQIZmz8Zh-9u1Wz_s-49" target="wAIVQIZmz8Zh-9u1Wz_s-50">
          <mxGeometry width="50" height="50" relative="1" as="geometry">
            <mxPoint x="177.61" y="640" as="sourcePoint" />
            <mxPoint x="192.61" y="790" as="targetPoint" />
          </mxGeometry>
        </mxCell>
        <mxCell id="wAIVQIZmz8Zh-9u1Wz_s-56" value="ORCAMENTO" style="rounded=0;whiteSpace=wrap;html=1;fontSize=25;" vertex="1" parent="1">
          <mxGeometry x="2126" y="610" width="180" height="60" as="geometry" />
        </mxCell>
        <mxCell id="wAIVQIZmz8Zh-9u1Wz_s-57" value="Aprovado?" style="ellipse;whiteSpace=wrap;html=1;fontSize=18;" vertex="1" parent="1">
          <mxGeometry x="1980" y="660" width="120" height="50" as="geometry" />
        </mxCell>
        <mxCell id="wAIVQIZmz8Zh-9u1Wz_s-58" value="&lt;u&gt;Id&lt;/u&gt;" style="ellipse;whiteSpace=wrap;html=1;fontSize=18;" vertex="1" parent="1">
          <mxGeometry x="2006" y="770" width="120" height="50" as="geometry" />
        </mxCell>
        <mxCell id="wAIVQIZmz8Zh-9u1Wz_s-59" value="" style="endArrow=none;html=1;rounded=0;exitX=1;exitY=0;exitDx=0;exitDy=0;entryX=0.25;entryY=1;entryDx=0;entryDy=0;" edge="1" parent="1" source="wAIVQIZmz8Zh-9u1Wz_s-58" target="wAIVQIZmz8Zh-9u1Wz_s-56">
          <mxGeometry width="50" height="50" relative="1" as="geometry">
            <mxPoint x="2063.61" y="800" as="sourcePoint" />
            <mxPoint x="2113.61" y="750" as="targetPoint" />
          </mxGeometry>
        </mxCell>
        <mxCell id="wAIVQIZmz8Zh-9u1Wz_s-60" value="" style="endArrow=none;html=1;rounded=0;exitX=0.5;exitY=0;exitDx=0;exitDy=0;entryX=0.5;entryY=1;entryDx=0;entryDy=0;" edge="1" parent="1" target="wAIVQIZmz8Zh-9u1Wz_s-56">
          <mxGeometry width="50" height="50" relative="1" as="geometry">
            <mxPoint x="2261" y="760" as="sourcePoint" />
            <mxPoint x="2166" y="780" as="targetPoint" />
          </mxGeometry>
        </mxCell>
        <mxCell id="wAIVQIZmz8Zh-9u1Wz_s-61" value="" style="endArrow=none;html=1;rounded=0;entryX=1;entryY=0.5;entryDx=0;entryDy=0;" edge="1" parent="1" source="wAIVQIZmz8Zh-9u1Wz_s-56" target="wAIVQIZmz8Zh-9u1Wz_s-57">
          <mxGeometry width="50" height="50" relative="1" as="geometry">
            <mxPoint x="2161" y="640" as="sourcePoint" />
            <mxPoint x="2176" y="790" as="targetPoint" />
          </mxGeometry>
        </mxCell>
        <mxCell id="wAIVQIZmz8Zh-9u1Wz_s-63" value="&lt;span style=&quot;font-size: 18px;&quot;&gt;Valor&lt;/span&gt;" style="ellipse;whiteSpace=wrap;html=1;fontSize=18;fontStyle=0" vertex="1" parent="1">
          <mxGeometry x="2196" y="760" width="120" height="50" as="geometry" />
        </mxCell>
        <mxCell id="wAIVQIZmz8Zh-9u1Wz_s-68" value="Idade" style="ellipse;whiteSpace=wrap;html=1;dashed=1;fontSize=18;" vertex="1" parent="1">
          <mxGeometry x="1258" y="660" width="120" height="50" as="geometry" />
        </mxCell>
        <mxCell id="wAIVQIZmz8Zh-9u1Wz_s-69" value="" style="endArrow=none;dashed=1;html=1;dashPattern=1 3;strokeWidth=2;rounded=0;entryX=0;entryY=0.5;entryDx=0;entryDy=0;" edge="1" parent="1" target="wAIVQIZmz8Zh-9u1Wz_s-68">
          <mxGeometry width="50" height="50" relative="1" as="geometry">
            <mxPoint x="1230" y="684.9300000000001" as="sourcePoint" />
            <mxPoint x="1260" y="598.12" as="targetPoint" />
          </mxGeometry>
        </mxCell>
        <mxCell id="wAIVQIZmz8Zh-9u1Wz_s-70" value="Idade" style="ellipse;whiteSpace=wrap;html=1;dashed=1;fontSize=18;" vertex="1" parent="1">
          <mxGeometry x="340" y="753" width="120" height="50" as="geometry" />
        </mxCell>
        <mxCell id="wAIVQIZmz8Zh-9u1Wz_s-71" value="" style="endArrow=none;dashed=1;html=1;dashPattern=1 3;strokeWidth=2;rounded=0;entryX=0;entryY=0.5;entryDx=0;entryDy=0;exitX=0.75;exitY=1;exitDx=0;exitDy=0;" edge="1" parent="1" target="wAIVQIZmz8Zh-9u1Wz_s-70" source="wAIVQIZmz8Zh-9u1Wz_s-49">
          <mxGeometry width="50" height="50" relative="1" as="geometry">
            <mxPoint x="320" y="754.9300000000001" as="sourcePoint" />
            <mxPoint x="350" y="668.12" as="targetPoint" />
          </mxGeometry>
        </mxCell>
        <mxCell id="wAIVQIZmz8Zh-9u1Wz_s-73" value="" style="endArrow=none;html=1;rounded=0;entryX=1;entryY=0.5;entryDx=0;entryDy=0;exitX=0;exitY=0.5;exitDx=0;exitDy=0;" edge="1" parent="1" source="wAIVQIZmz8Zh-9u1Wz_s-4" target="wAIVQIZmz8Zh-9u1Wz_s-8">
          <mxGeometry width="50" height="50" relative="1" as="geometry">
            <mxPoint x="1520" y="230" as="sourcePoint" />
            <mxPoint x="1570" y="180" as="targetPoint" />
          </mxGeometry>
        </mxCell>
        <mxCell id="wAIVQIZmz8Zh-9u1Wz_s-78" value="M" style="whiteSpace=wrap;html=1;aspect=fixed;fontSize=40;fillColor=none;strokeColor=none;strokeWidth=0;" vertex="1" parent="1">
          <mxGeometry x="1976" y="170" width="30" height="30" as="geometry" />
        </mxCell>
        <mxCell id="wAIVQIZmz8Zh-9u1Wz_s-80" value="N" style="whiteSpace=wrap;html=1;aspect=fixed;fontSize=40;fillColor=none;strokeColor=none;strokeWidth=0;" vertex="1" parent="1">
          <mxGeometry x="327.61" y="120" width="30" height="30" as="geometry" />
        </mxCell>
        <mxCell id="wAIVQIZmz8Zh-9u1Wz_s-81" value="REALIZA&lt;span style=&quot;font-size: 41px;&quot; id=&quot;docs-internal-guid-7ae01687-7fff-5947-fd97-b3079eaf287c&quot;&gt;&lt;/span&gt;" style="rhombus;whiteSpace=wrap;html=1;fontSize=41;" vertex="1" parent="1">
          <mxGeometry x="27.639999999999976" y="332" width="390" height="163.19" as="geometry" />
        </mxCell>
        <mxCell id="wAIVQIZmz8Zh-9u1Wz_s-84" value="N" style="whiteSpace=wrap;html=1;aspect=fixed;fontSize=40;fillColor=none;strokeColor=none;strokeWidth=0;" vertex="1" parent="1">
          <mxGeometry x="235" y="183.19" width="30" height="30" as="geometry" />
        </mxCell>
        <mxCell id="wAIVQIZmz8Zh-9u1Wz_s-85" value="M" style="whiteSpace=wrap;html=1;aspect=fixed;fontSize=40;fillColor=none;strokeColor=none;strokeWidth=0;" vertex="1" parent="1">
          <mxGeometry x="230" y="630" width="30" height="30" as="geometry" />
        </mxCell>
        <mxCell id="wAIVQIZmz8Zh-9u1Wz_s-86" value="PRODUTOR&lt;span style=&quot;font-size: 41px;&quot; id=&quot;docs-internal-guid-7ae01687-7fff-5947-fd97-b3079eaf287c&quot;&gt;&lt;/span&gt;" style="rhombus;whiteSpace=wrap;html=1;fontSize=41;" vertex="1" parent="1">
          <mxGeometry x="540" y="430" width="390" height="163.19" as="geometry" />
        </mxCell>
        <mxCell id="wAIVQIZmz8Zh-9u1Wz_s-88" value="" style="endArrow=none;html=1;rounded=0;entryX=0.651;entryY=0.91;entryDx=0;entryDy=0;entryPerimeter=0;exitX=0;exitY=0;exitDx=0;exitDy=0;" edge="1" parent="1" source="wAIVQIZmz8Zh-9u1Wz_s-5" target="wAIVQIZmz8Zh-9u1Wz_s-86">
          <mxGeometry width="50" height="50" relative="1" as="geometry">
            <mxPoint x="1040" y="645" as="sourcePoint" />
            <mxPoint x="1040" y="460" as="targetPoint" />
          </mxGeometry>
        </mxCell>
        <mxCell id="wAIVQIZmz8Zh-9u1Wz_s-89" value="N" style="whiteSpace=wrap;html=1;aspect=fixed;fontSize=40;fillColor=none;strokeColor=none;strokeWidth=0;" vertex="1" parent="1">
          <mxGeometry x="290" y="220.07" width="30" height="30" as="geometry" />
        </mxCell>
        <mxCell id="wAIVQIZmz8Zh-9u1Wz_s-91" value="M" style="whiteSpace=wrap;html=1;aspect=fixed;fontSize=40;fillColor=none;strokeColor=none;strokeWidth=0;" vertex="1" parent="1">
          <mxGeometry x="1050" y="625" width="30" height="30" as="geometry" />
        </mxCell>
        <mxCell id="wAIVQIZmz8Zh-9u1Wz_s-92" value="POSSUEM&lt;span style=&quot;font-size: 41px;&quot; id=&quot;docs-internal-guid-361c9507-7fff-e8df-cd96-378af089c91f&quot;&gt;&lt;/span&gt;&lt;span style=&quot;font-size: 41px;&quot; id=&quot;docs-internal-guid-361c9507-7fff-e8df-cd96-378af089c91f&quot;&gt;&lt;/span&gt;&lt;span style=&quot;font-size: 41px;&quot; id=&quot;docs-internal-guid-361c9507-7fff-e8df-cd96-378af089c91f&quot;&gt;&lt;/span&gt;&lt;span style=&quot;font-size: 41px;&quot; id=&quot;docs-internal-guid-361c9507-7fff-e8df-cd96-378af089c91f&quot;&gt;&lt;/span&gt;&lt;span style=&quot;font-size: 41px;&quot; id=&quot;docs-internal-guid-361c9507-7fff-e8df-cd96-378af089c91f&quot;&gt;&lt;/span&gt;&lt;span style=&quot;font-size: 41px;&quot; id=&quot;docs-internal-guid-361c9507-7fff-e8df-cd96-378af089c91f&quot;&gt;&lt;/span&gt;&lt;span style=&quot;font-size: 41px;&quot; id=&quot;docs-internal-guid-361c9507-7fff-e8df-cd96-378af089c91f&quot;&gt;&lt;/span&gt;&lt;span style=&quot;font-size: 41px;&quot; id=&quot;docs-internal-guid-361c9507-7fff-e8df-cd96-378af089c91f&quot;&gt;&lt;/span&gt;&lt;span style=&quot;font-size: 41px;&quot; id=&quot;docs-internal-guid-361c9507-7fff-e8df-cd96-378af089c91f&quot;&gt;&lt;/span&gt;&lt;span style=&quot;font-size: 41px;&quot; id=&quot;docs-internal-guid-361c9507-7fff-e8df-cd96-378af089c91f&quot;&gt;&lt;/span&gt;&lt;span style=&quot;font-size: 41px;&quot; id=&quot;docs-internal-guid-361c9507-7fff-e8df-cd96-378af089c91f&quot;&gt;&lt;/span&gt;&lt;span style=&quot;font-size: 41px;&quot; id=&quot;docs-internal-guid-361c9507-7fff-e8df-cd96-378af089c91f&quot;&gt;&lt;/span&gt;&lt;span style=&quot;font-size: 41px;&quot; id=&quot;docs-internal-guid-361c9507-7fff-e8df-cd96-378af089c91f&quot;&gt;&lt;/span&gt;&lt;span style=&quot;font-size: 41px;&quot; id=&quot;docs-internal-guid-361c9507-7fff-e8df-cd96-378af089c91f&quot;&gt;&lt;/span&gt;&lt;span style=&quot;font-size: 41px;&quot; id=&quot;docs-internal-guid-361c9507-7fff-e8df-cd96-378af089c91f&quot;&gt;&lt;/span&gt;&lt;span style=&quot;font-size: 41px;&quot; id=&quot;docs-internal-guid-361c9507-7fff-e8df-cd96-378af089c91f&quot;&gt;&lt;/span&gt;&lt;span style=&quot;font-size: 41px;&quot; id=&quot;docs-internal-guid-361c9507-7fff-e8df-cd96-378af089c91f&quot;&gt;&lt;/span&gt;&lt;span style=&quot;font-size: 41px;&quot; id=&quot;docs-internal-guid-361c9507-7fff-e8df-cd96-378af089c91f&quot;&gt;&lt;/span&gt;&lt;span style=&quot;font-size: 41px;&quot; id=&quot;docs-internal-guid-361c9507-7fff-e8df-cd96-378af089c91f&quot;&gt;&lt;/span&gt;&lt;span style=&quot;font-size: 41px;&quot; id=&quot;docs-internal-guid-7ae01687-7fff-5947-fd97-b3079eaf287c&quot;&gt;&lt;/span&gt;&lt;span style=&quot;font-size: 41px;&quot; id=&quot;docs-internal-guid-7ae01687-7fff-5947-fd97-b3079eaf287c&quot;&gt;&lt;/span&gt;&lt;span style=&quot;font-size: 41px;&quot; id=&quot;docs-internal-guid-7ae01687-7fff-5947-fd97-b3079eaf287c&quot;&gt;&lt;/span&gt;&lt;span style=&quot;font-size: 41px;&quot; id=&quot;docs-internal-guid-7ae01687-7fff-5947-fd97-b3079eaf287c&quot;&gt;&lt;/span&gt;&lt;span style=&quot;font-size: 41px;&quot; id=&quot;docs-internal-guid-7ae01687-7fff-5947-fd97-b3079eaf287c&quot;&gt;&lt;/span&gt;&lt;span style=&quot;font-size: 41px;&quot; id=&quot;docs-internal-guid-7ae01687-7fff-5947-fd97-b3079eaf287c&quot;&gt;&lt;/span&gt;&lt;span style=&quot;font-size: 41px;&quot; id=&quot;docs-internal-guid-7ae01687-7fff-5947-fd97-b3079eaf287c&quot;&gt;&lt;/span&gt;&lt;span style=&quot;font-size: 41px;&quot; id=&quot;docs-internal-guid-7ae01687-7fff-5947-fd97-b3079eaf287c&quot;&gt;&lt;/span&gt;&lt;span style=&quot;font-size: 41px;&quot; id=&quot;docs-internal-guid-7ae01687-7fff-5947-fd97-b3079eaf287c&quot;&gt;&lt;/span&gt;&lt;span style=&quot;font-size: 41px;&quot; id=&quot;docs-internal-guid-7ae01687-7fff-5947-fd97-b3079eaf287c&quot;&gt;&lt;/span&gt;&lt;span style=&quot;font-size: 41px;&quot; id=&quot;docs-internal-guid-7ae01687-7fff-5947-fd97-b3079eaf287c&quot;&gt;&lt;/span&gt;&lt;span style=&quot;font-size: 41px;&quot; id=&quot;docs-internal-guid-7ae01687-7fff-5947-fd97-b3079eaf287c&quot;&gt;&lt;/span&gt;&lt;span style=&quot;font-size: 41px;&quot; id=&quot;docs-internal-guid-7ae01687-7fff-5947-fd97-b3079eaf287c&quot;&gt;&lt;/span&gt;&lt;span style=&quot;font-size: 41px;&quot; id=&quot;docs-internal-guid-7ae01687-7fff-5947-fd97-b3079eaf287c&quot;&gt;&lt;/span&gt;&lt;span style=&quot;font-size: 41px;&quot; id=&quot;docs-internal-guid-7ae01687-7fff-5947-fd97-b3079eaf287c&quot;&gt;&lt;/span&gt;&lt;span style=&quot;font-size: 41px;&quot; id=&quot;docs-internal-guid-7ae01687-7fff-5947-fd97-b3079eaf287c&quot;&gt;&lt;/span&gt;&lt;span style=&quot;font-size: 41px;&quot; id=&quot;docs-internal-guid-7ae01687-7fff-5947-fd97-b3079eaf287c&quot;&gt;&lt;/span&gt;&lt;span style=&quot;font-size: 41px;&quot; id=&quot;docs-internal-guid-7ae01687-7fff-5947-fd97-b3079eaf287c&quot;&gt;&lt;/span&gt;&lt;span style=&quot;font-size: 41px;&quot; id=&quot;docs-internal-guid-7ae01687-7fff-5947-fd97-b3079eaf287c&quot;&gt;&lt;/span&gt;" style="rhombus;whiteSpace=wrap;html=1;fontSize=41;" vertex="1" parent="1">
          <mxGeometry x="1540" y="440" width="390" height="163.19" as="geometry" />
        </mxCell>
        <mxCell id="wAIVQIZmz8Zh-9u1Wz_s-96" value="N" style="whiteSpace=wrap;html=1;aspect=fixed;fontSize=40;fillColor=none;strokeColor=none;strokeWidth=0;" vertex="1" parent="1">
          <mxGeometry x="372.61" y="200" width="30" height="30" as="geometry" />
        </mxCell>
        <mxCell id="wAIVQIZmz8Zh-9u1Wz_s-97" value="M" style="whiteSpace=wrap;html=1;aspect=fixed;fontSize=40;fillColor=none;strokeColor=none;strokeWidth=0;" vertex="1" parent="1">
          <mxGeometry x="2100" y="580" width="30" height="30" as="geometry" />
        </mxCell>
      </root>
    </mxGraphModel>
  </diagram>
</mxfile>
